<mxfile host="app.diagrams.net" modified="2023-11-30T03:15:13.276Z" agent="Mozilla/5.0 (Macintosh; Intel Mac OS X 10_15_7) AppleWebKit/537.36 (KHTML, like Gecko) Chrome/119.0.0.0 Safari/537.36" etag="9DVE-Jh_M_wbzp1BmeQE" version="22.1.5" type="github">
  <diagram name="第 1 页" id="YrESG4-pe0sYExbxf6HH">
    <mxGraphModel dx="1050" dy="574" grid="0" gridSize="10" guides="1" tooltips="1" connect="1" arrows="1" fold="1" page="1" pageScale="1" pageWidth="827" pageHeight="1169" math="1" shadow="0">
      <root>
        <mxCell id="0" />
        <mxCell id="1" parent="0" />
        <mxCell id="3iSkRXKuQuDvA5Zweqmn-5" value="" style="rounded=0;whiteSpace=wrap;html=1;fillColor=#fff2cc;strokeColor=#d6b656;dashed=1;" vertex="1" parent="1">
          <mxGeometry x="164" y="669" width="624" height="313" as="geometry" />
        </mxCell>
        <mxCell id="3iSkRXKuQuDvA5Zweqmn-2" value="" style="rounded=0;whiteSpace=wrap;html=1;fillColor=#b0e3e6;strokeColor=#0e8088;opacity=50;dashed=1;" vertex="1" parent="1">
          <mxGeometry x="199" y="707" width="569" height="183" as="geometry" />
        </mxCell>
        <mxCell id="qDwPxaCXtAMD6tZ4ISzB-16" style="rounded=0;orthogonalLoop=1;jettySize=auto;html=1;exitX=1;exitY=0.5;exitDx=0;exitDy=0;entryX=0;entryY=0.5;entryDx=0;entryDy=0;fillColor=#dae8fc;gradientColor=#7ea6e0;strokeColor=#7f7f7f;" parent="1" source="qDwPxaCXtAMD6tZ4ISzB-3" target="qDwPxaCXtAMD6tZ4ISzB-4" edge="1">
          <mxGeometry relative="1" as="geometry" />
        </mxCell>
        <mxCell id="qDwPxaCXtAMD6tZ4ISzB-3" value="i" style="rounded=0;whiteSpace=wrap;fillColor=#7fadf0;strokeColor=#5f8abb;gradientDirection=radial;aspect=fixed;fontColor=#ffffff;fontSize=11;" parent="1" vertex="1">
          <mxGeometry x="240" y="538" width="15" height="15" as="geometry" />
        </mxCell>
        <mxCell id="qDwPxaCXtAMD6tZ4ISzB-18" style="rounded=0;orthogonalLoop=1;jettySize=auto;html=1;exitX=1;exitY=0.5;exitDx=0;exitDy=0;entryX=0;entryY=0.5;entryDx=0;entryDy=0;fillColor=#dae8fc;gradientColor=#7ea6e0;strokeColor=#7f7f7f;startArrow=none;startFill=0;endArrow=openThin;endFill=0;" parent="1" source="qDwPxaCXtAMD6tZ4ISzB-4" target="qDwPxaCXtAMD6tZ4ISzB-5" edge="1">
          <mxGeometry relative="1" as="geometry" />
        </mxCell>
        <mxCell id="qDwPxaCXtAMD6tZ4ISzB-21" style="edgeStyle=none;shape=connector;rounded=0;orthogonalLoop=1;jettySize=auto;html=1;exitX=1;exitY=0.5;exitDx=0;exitDy=0;labelBackgroundColor=default;strokeColor=#7f7f7f;align=center;verticalAlign=middle;fontFamily=Helvetica;fontSize=11;fontColor=default;startArrow=none;startFill=0;endArrow=openThin;endFill=0;fillColor=#dae8fc;gradientColor=#7ea6e0;jumpStyle=arc;entryX=0;entryY=1;entryDx=0;entryDy=0;" parent="1" source="qDwPxaCXtAMD6tZ4ISzB-4" target="qDwPxaCXtAMD6tZ4ISzB-7" edge="1">
          <mxGeometry relative="1" as="geometry">
            <mxPoint x="376" y="411" as="targetPoint" />
          </mxGeometry>
        </mxCell>
        <mxCell id="qDwPxaCXtAMD6tZ4ISzB-29" style="edgeStyle=none;shape=connector;rounded=0;jumpStyle=arc;orthogonalLoop=1;jettySize=auto;html=1;exitX=1;exitY=0.5;exitDx=0;exitDy=0;labelBackgroundColor=default;strokeColor=#7f7f7f;align=center;verticalAlign=middle;fontFamily=Helvetica;fontSize=11;fontColor=default;startArrow=none;startFill=0;endArrow=openThin;endFill=0;fillColor=#dae8fc;gradientColor=#7ea6e0;entryX=0;entryY=0.5;entryDx=0;entryDy=0;" parent="1" source="qDwPxaCXtAMD6tZ4ISzB-4" target="qDwPxaCXtAMD6tZ4ISzB-9" edge="1">
          <mxGeometry relative="1" as="geometry">
            <mxPoint x="446" y="521" as="targetPoint" />
          </mxGeometry>
        </mxCell>
        <mxCell id="qDwPxaCXtAMD6tZ4ISzB-30" style="edgeStyle=none;shape=connector;rounded=0;jumpStyle=arc;orthogonalLoop=1;jettySize=auto;html=1;exitX=1;exitY=0.5;exitDx=0;exitDy=0;entryX=0;entryY=0.5;entryDx=0;entryDy=0;labelBackgroundColor=default;strokeColor=#7f7f7f;align=center;verticalAlign=middle;fontFamily=Helvetica;fontSize=11;fontColor=default;startArrow=none;startFill=0;endArrow=openThin;endFill=0;fillColor=#dae8fc;gradientColor=#7ea6e0;" parent="1" source="qDwPxaCXtAMD6tZ4ISzB-4" target="qDwPxaCXtAMD6tZ4ISzB-11" edge="1">
          <mxGeometry relative="1" as="geometry" />
        </mxCell>
        <mxCell id="qDwPxaCXtAMD6tZ4ISzB-33" style="edgeStyle=none;shape=connector;rounded=0;jumpStyle=arc;orthogonalLoop=1;jettySize=auto;html=1;exitX=1;exitY=0.5;exitDx=0;exitDy=0;entryX=0;entryY=0.5;entryDx=0;entryDy=0;labelBackgroundColor=default;strokeColor=#7f7f7f;align=center;verticalAlign=middle;fontFamily=Helvetica;fontSize=11;fontColor=default;startArrow=none;startFill=0;endArrow=openThin;endFill=0;fillColor=#dae8fc;gradientColor=#7ea6e0;" parent="1" source="qDwPxaCXtAMD6tZ4ISzB-3" target="qDwPxaCXtAMD6tZ4ISzB-8" edge="1">
          <mxGeometry relative="1" as="geometry" />
        </mxCell>
        <mxCell id="qDwPxaCXtAMD6tZ4ISzB-4" value="1" style="ellipse;whiteSpace=wrap;html=1;aspect=fixed;fillColor=#7fadf0;strokeColor=#5f8abb;fontColor=#ffffff;fontSize=11;" parent="1" vertex="1">
          <mxGeometry x="273" y="538" width="15" height="15" as="geometry" />
        </mxCell>
        <mxCell id="qDwPxaCXtAMD6tZ4ISzB-19" style="edgeStyle=none;shape=connector;rounded=0;orthogonalLoop=1;jettySize=auto;html=1;exitX=0.5;exitY=0;exitDx=0;exitDy=0;entryX=0.5;entryY=1;entryDx=0;entryDy=0;labelBackgroundColor=default;strokeColor=#7f7f7f;align=center;verticalAlign=middle;fontFamily=Helvetica;fontSize=11;fontColor=default;startArrow=none;startFill=0;endArrow=openThin;endFill=0;fillColor=#dae8fc;gradientColor=#7ea6e0;" parent="1" source="qDwPxaCXtAMD6tZ4ISzB-5" target="qDwPxaCXtAMD6tZ4ISzB-6" edge="1">
          <mxGeometry relative="1" as="geometry" />
        </mxCell>
        <mxCell id="qDwPxaCXtAMD6tZ4ISzB-39" style="edgeStyle=none;shape=connector;rounded=0;jumpStyle=arc;orthogonalLoop=1;jettySize=auto;html=1;exitX=1;exitY=0.5;exitDx=0;exitDy=0;labelBackgroundColor=default;strokeColor=#7f7f7f;align=center;verticalAlign=middle;fontFamily=Helvetica;fontSize=11;fontColor=default;startArrow=none;startFill=0;endArrow=openThin;endFill=0;fillColor=#dae8fc;gradientColor=#7ea6e0;entryX=0;entryY=0.5;entryDx=0;entryDy=0;" parent="1" source="qDwPxaCXtAMD6tZ4ISzB-5" target="qDwPxaCXtAMD6tZ4ISzB-10" edge="1">
          <mxGeometry relative="1" as="geometry">
            <mxPoint x="417" y="541" as="targetPoint" />
          </mxGeometry>
        </mxCell>
        <mxCell id="qDwPxaCXtAMD6tZ4ISzB-5" value="5" style="ellipse;whiteSpace=wrap;html=1;aspect=fixed;fillColor=#7fadf0;strokeColor=#5f8abb;fontColor=#ffffff;fontSize=11;" parent="1" vertex="1">
          <mxGeometry x="344" y="493" width="15" height="15" as="geometry" />
        </mxCell>
        <mxCell id="qDwPxaCXtAMD6tZ4ISzB-20" style="edgeStyle=none;shape=connector;rounded=0;orthogonalLoop=1;jettySize=auto;html=1;exitX=0.5;exitY=0;exitDx=0;exitDy=0;entryX=0.5;entryY=1;entryDx=0;entryDy=0;labelBackgroundColor=default;strokeColor=#7f7f7f;align=center;verticalAlign=middle;fontFamily=Helvetica;fontSize=11;fontColor=default;startArrow=none;startFill=0;endArrow=openThin;endFill=0;fillColor=#dae8fc;gradientColor=#7ea6e0;" parent="1" source="qDwPxaCXtAMD6tZ4ISzB-6" target="qDwPxaCXtAMD6tZ4ISzB-7" edge="1">
          <mxGeometry relative="1" as="geometry" />
        </mxCell>
        <mxCell id="qDwPxaCXtAMD6tZ4ISzB-28" style="edgeStyle=none;shape=connector;rounded=0;jumpStyle=arc;orthogonalLoop=1;jettySize=auto;html=1;exitX=1;exitY=0.5;exitDx=0;exitDy=0;entryX=0;entryY=0.5;entryDx=0;entryDy=0;labelBackgroundColor=default;strokeColor=#7f7f7f;align=center;verticalAlign=middle;fontFamily=Helvetica;fontSize=11;fontColor=default;startArrow=none;startFill=0;endArrow=openThin;endFill=0;fillColor=#dae8fc;gradientColor=#7ea6e0;" parent="1" source="qDwPxaCXtAMD6tZ4ISzB-6" target="qDwPxaCXtAMD6tZ4ISzB-9" edge="1">
          <mxGeometry relative="1" as="geometry" />
        </mxCell>
        <mxCell id="qDwPxaCXtAMD6tZ4ISzB-32" style="edgeStyle=none;shape=connector;rounded=0;jumpStyle=arc;orthogonalLoop=1;jettySize=auto;html=1;exitX=1;exitY=0.5;exitDx=0;exitDy=0;entryX=0;entryY=0;entryDx=0;entryDy=0;labelBackgroundColor=default;strokeColor=#7f7f7f;align=center;verticalAlign=middle;fontFamily=Helvetica;fontSize=11;fontColor=default;startArrow=none;startFill=0;endArrow=openThin;endFill=0;fillColor=#dae8fc;gradientColor=#7ea6e0;" parent="1" source="qDwPxaCXtAMD6tZ4ISzB-6" target="qDwPxaCXtAMD6tZ4ISzB-11" edge="1">
          <mxGeometry relative="1" as="geometry" />
        </mxCell>
        <mxCell id="qDwPxaCXtAMD6tZ4ISzB-6" value="6" style="ellipse;whiteSpace=wrap;html=1;aspect=fixed;fillColor=#7fadf0;strokeColor=#5f8abb;fontColor=#ffffff;fontSize=11;" parent="1" vertex="1">
          <mxGeometry x="344" y="454" width="15" height="15" as="geometry" />
        </mxCell>
        <mxCell id="qDwPxaCXtAMD6tZ4ISzB-23" style="edgeStyle=none;shape=connector;rounded=0;jumpStyle=arc;orthogonalLoop=1;jettySize=auto;html=1;exitX=0.5;exitY=0;exitDx=0;exitDy=0;entryX=0.5;entryY=1;entryDx=0;entryDy=0;labelBackgroundColor=default;strokeColor=#7f7f7f;align=center;verticalAlign=middle;fontFamily=Helvetica;fontSize=11;fontColor=default;startArrow=none;startFill=0;endArrow=openThin;endFill=0;fillColor=#dae8fc;gradientColor=#7ea6e0;" parent="1" source="qDwPxaCXtAMD6tZ4ISzB-7" target="qDwPxaCXtAMD6tZ4ISzB-8" edge="1">
          <mxGeometry relative="1" as="geometry" />
        </mxCell>
        <mxCell id="qDwPxaCXtAMD6tZ4ISzB-24" style="edgeStyle=none;shape=connector;rounded=0;jumpStyle=arc;orthogonalLoop=1;jettySize=auto;html=1;exitX=1;exitY=0.5;exitDx=0;exitDy=0;entryX=0;entryY=0;entryDx=0;entryDy=0;labelBackgroundColor=default;strokeColor=#7f7f7f;align=center;verticalAlign=middle;fontFamily=Helvetica;fontSize=11;fontColor=default;startArrow=none;startFill=0;endArrow=openThin;endFill=0;fillColor=#dae8fc;gradientColor=#7ea6e0;" parent="1" source="qDwPxaCXtAMD6tZ4ISzB-7" target="qDwPxaCXtAMD6tZ4ISzB-9" edge="1">
          <mxGeometry relative="1" as="geometry" />
        </mxCell>
        <mxCell id="qDwPxaCXtAMD6tZ4ISzB-35" style="edgeStyle=none;shape=connector;rounded=0;jumpStyle=arc;orthogonalLoop=1;jettySize=auto;html=1;exitX=1;exitY=0.5;exitDx=0;exitDy=0;entryX=0;entryY=0.5;entryDx=0;entryDy=0;labelBackgroundColor=default;strokeColor=#7f7f7f;align=center;verticalAlign=middle;fontFamily=Helvetica;fontSize=11;fontColor=default;startArrow=none;startFill=0;endArrow=openThin;endFill=0;fillColor=#dae8fc;gradientColor=#7ea6e0;" parent="1" source="qDwPxaCXtAMD6tZ4ISzB-7" target="qDwPxaCXtAMD6tZ4ISzB-15" edge="1">
          <mxGeometry relative="1" as="geometry" />
        </mxCell>
        <mxCell id="qDwPxaCXtAMD6tZ4ISzB-7" value="2" style="ellipse;whiteSpace=wrap;html=1;aspect=fixed;fillColor=#7fadf0;strokeColor=#5f8abb;fontColor=#ffffff;fontSize=11;" parent="1" vertex="1">
          <mxGeometry x="344" y="420" width="15" height="15" as="geometry" />
        </mxCell>
        <mxCell id="qDwPxaCXtAMD6tZ4ISzB-36" style="edgeStyle=none;shape=connector;rounded=0;jumpStyle=arc;orthogonalLoop=1;jettySize=auto;html=1;exitX=1;exitY=0.5;exitDx=0;exitDy=0;entryX=0.5;entryY=0;entryDx=0;entryDy=0;labelBackgroundColor=default;strokeColor=#7f7f7f;align=center;verticalAlign=middle;fontFamily=Helvetica;fontSize=11;fontColor=default;startArrow=none;startFill=0;endArrow=openThin;endFill=0;fillColor=#dae8fc;gradientColor=#7ea6e0;" parent="1" source="qDwPxaCXtAMD6tZ4ISzB-8" target="qDwPxaCXtAMD6tZ4ISzB-11" edge="1">
          <mxGeometry relative="1" as="geometry" />
        </mxCell>
        <mxCell id="kYBf_stXQ2g6SbunrgJb-5" style="edgeStyle=none;shape=connector;rounded=0;jumpStyle=arc;orthogonalLoop=1;jettySize=auto;html=1;exitX=1;exitY=0.5;exitDx=0;exitDy=0;labelBackgroundColor=default;strokeColor=#7f7f7f;align=center;verticalAlign=middle;fontFamily=Helvetica;fontSize=11;fontColor=default;startArrow=none;startFill=0;endArrow=openThin;endFill=0;fillColor=#dae8fc;gradientColor=#7ea6e0;entryX=0.5;entryY=0;entryDx=0;entryDy=0;" parent="1" source="qDwPxaCXtAMD6tZ4ISzB-8" target="qDwPxaCXtAMD6tZ4ISzB-9" edge="1">
          <mxGeometry relative="1" as="geometry" />
        </mxCell>
        <mxCell id="qDwPxaCXtAMD6tZ4ISzB-8" value="3" style="ellipse;whiteSpace=wrap;html=1;aspect=fixed;fillColor=#7fadf0;strokeColor=#5f8abb;fontColor=#ffffff;gradientColor=none;gradientDirection=north;fontSize=11;" parent="1" vertex="1">
          <mxGeometry x="345" y="374" width="15" height="15" as="geometry" />
        </mxCell>
        <mxCell id="qDwPxaCXtAMD6tZ4ISzB-25" style="edgeStyle=none;shape=connector;rounded=0;jumpStyle=arc;orthogonalLoop=1;jettySize=auto;html=1;entryX=0.5;entryY=0;entryDx=0;entryDy=0;labelBackgroundColor=default;strokeColor=#6c8ebf;align=center;verticalAlign=middle;fontFamily=Helvetica;fontSize=11;fontColor=default;startArrow=none;startFill=0;endArrow=openThin;endFill=0;fillColor=#dae8fc;gradientColor=#7ea6e0;exitX=0.5;exitY=1;exitDx=0;exitDy=0;" parent="1" source="qDwPxaCXtAMD6tZ4ISzB-9" target="qDwPxaCXtAMD6tZ4ISzB-10" edge="1">
          <mxGeometry relative="1" as="geometry">
            <mxPoint x="419" y="514" as="sourcePoint" />
          </mxGeometry>
        </mxCell>
        <mxCell id="qDwPxaCXtAMD6tZ4ISzB-9" value="7" style="ellipse;whiteSpace=wrap;html=1;aspect=fixed;fillColor=#7fadf0;strokeColor=#5f8abb;fontColor=#ffffff;fontSize=11;" parent="1" vertex="1">
          <mxGeometry x="389" y="504" width="15" height="15" as="geometry" />
        </mxCell>
        <mxCell id="qDwPxaCXtAMD6tZ4ISzB-26" style="edgeStyle=none;shape=connector;rounded=0;jumpStyle=arc;orthogonalLoop=1;jettySize=auto;html=1;exitX=1;exitY=0.5;exitDx=0;exitDy=0;entryX=0.043;entryY=0.333;entryDx=0;entryDy=0;labelBackgroundColor=default;strokeColor=#7f7f7f;align=center;verticalAlign=middle;fontFamily=Helvetica;fontSize=11;fontColor=default;startArrow=none;startFill=0;endArrow=openThin;endFill=0;fillColor=#dae8fc;gradientColor=#7ea6e0;entryPerimeter=0;" parent="1" source="qDwPxaCXtAMD6tZ4ISzB-10" target="qDwPxaCXtAMD6tZ4ISzB-11" edge="1">
          <mxGeometry relative="1" as="geometry" />
        </mxCell>
        <mxCell id="qDwPxaCXtAMD6tZ4ISzB-10" value="8" style="ellipse;whiteSpace=wrap;html=1;aspect=fixed;fillColor=#7fadf0;strokeColor=#5f8abb;fontColor=#ffffff;fontSize=11;" parent="1" vertex="1">
          <mxGeometry x="389" y="528" width="15" height="15" as="geometry" />
        </mxCell>
        <mxCell id="qDwPxaCXtAMD6tZ4ISzB-41" style="edgeStyle=none;shape=connector;rounded=0;jumpStyle=arc;orthogonalLoop=1;jettySize=auto;html=1;exitX=1;exitY=0.5;exitDx=0;exitDy=0;entryX=0;entryY=0.5;entryDx=0;entryDy=0;labelBackgroundColor=default;strokeColor=#7f7f7f;align=center;verticalAlign=middle;fontFamily=Helvetica;fontSize=11;fontColor=default;startArrow=none;startFill=0;endArrow=openThin;endFill=0;fillColor=#dae8fc;gradientColor=#7ea6e0;" parent="1" source="qDwPxaCXtAMD6tZ4ISzB-11" target="qDwPxaCXtAMD6tZ4ISzB-15" edge="1">
          <mxGeometry relative="1" as="geometry" />
        </mxCell>
        <mxCell id="qDwPxaCXtAMD6tZ4ISzB-11" value="4" style="ellipse;whiteSpace=wrap;html=1;aspect=fixed;fillColor=#7fadf0;strokeColor=#5f8abb;fontColor=#ffffff;fontSize=11;" parent="1" vertex="1">
          <mxGeometry x="456" y="538" width="15" height="15" as="geometry" />
        </mxCell>
        <mxCell id="qDwPxaCXtAMD6tZ4ISzB-15" value="i" style="rounded=0;whiteSpace=wrap;fillColor=#7fadf0;strokeColor=#5f8abb;gradientDirection=radial;aspect=fixed;fontColor=#ffffff;fontSize=11;" parent="1" vertex="1">
          <mxGeometry x="504" y="538" width="15" height="15" as="geometry" />
        </mxCell>
        <mxCell id="3iSkRXKuQuDvA5Zweqmn-1" value="agent 1" style="rounded=1;whiteSpace=wrap;html=1;fillColor=#fad9d5;strokeColor=#ae4132;" vertex="1" parent="1">
          <mxGeometry x="245" y="822" width="66" height="51" as="geometry" />
        </mxCell>
        <mxCell id="3iSkRXKuQuDvA5Zweqmn-3" value="agent j" style="rounded=1;whiteSpace=wrap;html=1;" vertex="1" parent="1">
          <mxGeometry x="389" y="817.5" width="120" height="60" as="geometry" />
        </mxCell>
        <mxCell id="3iSkRXKuQuDvA5Zweqmn-4" value="&lt;span style=&quot;color: rgb(0, 0, 0); font-family: Helvetica; font-size: 12px; font-style: normal; font-variant-ligatures: normal; font-variant-caps: normal; font-weight: 400; letter-spacing: normal; orphans: 2; text-align: center; text-indent: 0px; text-transform: none; widows: 2; word-spacing: 0px; -webkit-text-stroke-width: 0px; background-color: rgb(251, 251, 251); text-decoration-thickness: initial; text-decoration-style: initial; text-decoration-color: initial; float: none; display: inline !important;&quot;&gt;agent m&lt;/span&gt;" style="rounded=1;whiteSpace=wrap;html=1;" vertex="1" parent="1">
          <mxGeometry x="610" y="817.5" width="120" height="60" as="geometry" />
        </mxCell>
        <mxCell id="3iSkRXKuQuDvA5Zweqmn-6" value="&lt;font size=&quot;1&quot; color=&quot;#ffb570&quot;&gt;&lt;b style=&quot;font-size: 13px;&quot;&gt;Training&lt;/b&gt;&lt;/font&gt;" style="text;html=1;align=center;verticalAlign=middle;resizable=0;points=[];autosize=1;strokeColor=none;fillColor=none;" vertex="1" parent="1">
          <mxGeometry x="439" y="667" width="69" height="30" as="geometry" />
        </mxCell>
        <mxCell id="3iSkRXKuQuDvA5Zweqmn-8" value="&lt;font size=&quot;1&quot; color=&quot;#67ab9f&quot;&gt;&lt;b style=&quot;font-size: 13px;&quot;&gt;Execution&lt;/b&gt;&lt;/font&gt;" style="text;html=1;strokeColor=none;fillColor=none;align=center;verticalAlign=middle;whiteSpace=wrap;rounded=0;" vertex="1" parent="1">
          <mxGeometry x="446" y="731" width="60" height="30" as="geometry" />
        </mxCell>
        <mxCell id="3iSkRXKuQuDvA5Zweqmn-9" value="..." style="text;html=1;strokeColor=none;fillColor=none;align=center;verticalAlign=middle;whiteSpace=wrap;rounded=0;" vertex="1" parent="1">
          <mxGeometry x="322.5" y="834" width="60" height="27" as="geometry" />
        </mxCell>
        <mxCell id="3iSkRXKuQuDvA5Zweqmn-10" value="..." style="text;html=1;strokeColor=none;fillColor=none;align=center;verticalAlign=middle;whiteSpace=wrap;rounded=0;" vertex="1" parent="1">
          <mxGeometry x="530" y="832" width="60" height="27" as="geometry" />
        </mxCell>
        <mxCell id="3iSkRXKuQuDvA5Zweqmn-11" value="$$\sqrt{3×-1}+(1+x)^2$$" style="text;html=1;strokeColor=none;fillColor=none;align=center;verticalAlign=middle;whiteSpace=wrap;rounded=0;" vertex="1" parent="1">
          <mxGeometry x="397" y="764" width="102" height="30" as="geometry" />
        </mxCell>
        <mxCell id="3iSkRXKuQuDvA5Zweqmn-18" value="Text" style="text;html=1;strokeColor=none;fillColor=none;align=center;verticalAlign=middle;whiteSpace=wrap;rounded=0;" vertex="1" parent="1">
          <mxGeometry x="397" y="619" width="60" height="30" as="geometry" />
        </mxCell>
        <mxCell id="3iSkRXKuQuDvA5Zweqmn-19" value="$$\pi_{\theta_1}$$" style="text;html=1;strokeColor=none;fillColor=none;align=center;verticalAlign=middle;whiteSpace=wrap;rounded=0;" vertex="1" parent="1">
          <mxGeometry x="248" y="764" width="60" height="30" as="geometry" />
        </mxCell>
      </root>
    </mxGraphModel>
  </diagram>
</mxfile>
